<svg width="64" height="64" viewBox="0 0 64 64" fill="none" xmlns="http://www.w3.org/2000/svg">
<rect x="1.5" y="1.5" width="61" height="61" rx="30.5" fill="#FAB200"/>
<path d="M41.8377 38.2905C41.659 39.2436 41.2841 40.1491 40.737 40.9497C40.1898 41.7503 39.4823 42.4285 38.6593 42.9412C37.8362 43.454 36.9157 43.7902 35.9559 43.9285C34.9961 44.0667 34.018 44.0041 33.0837 43.7445L23.1837 40.9945C22.4635 40.7943 21.8137 40.3962 21.3082 39.8454C20.8027 39.2947 20.4616 38.6132 20.3237 37.8785L19.8757 35.4865C19.5457 33.7285 20.7957 32.1925 22.1897 31.6145C22.6997 31.4025 23.2817 31.1085 23.8957 30.6985C27.2557 28.4605 28.8557 25.4265 29.9277 22.8485C30.1197 22.3845 30.3037 21.9085 30.4817 21.4505C30.7737 20.6985 31.0497 19.9905 31.3137 19.4485C31.5357 18.9945 31.8037 18.5385 32.1537 18.1885C32.5257 17.8125 33.0237 17.5305 33.6497 17.5305C34.3637 17.5305 34.9817 17.7785 35.4737 18.2105C35.9437 18.6245 36.2597 19.1725 36.4777 19.7325C36.9057 20.8405 37.0397 22.2345 37.0577 23.5185C37.0645 24.8601 36.9796 26.2005 36.8037 27.5305H37.8277C38.5624 27.5305 39.2881 27.6925 39.9531 28.0048C40.6181 28.3172 41.2061 28.7722 41.6753 29.3376C42.1444 29.903 42.4832 30.5649 42.6676 31.2761C42.8519 31.9873 42.8772 32.7304 42.7417 33.4525L41.8357 38.2925L41.8377 38.2905Z" fill="#323232"/>
<rect x="1.5" y="1.5" width="61" height="61" rx="30.5" stroke="#FAB200" stroke-width="3"/>
</svg>
