<svg width="64" height="64" viewBox="0 0 64 64" fill="none" xmlns="http://www.w3.org/2000/svg">
<rect x="1.5" y="1.5" width="61" height="61" rx="30.5" fill="#DC5942"/>
<path d="M41.1881 26.2398C41.0093 25.2867 40.6345 24.3812 40.0873 23.5806C39.5402 22.78 38.8326 22.1018 38.0096 21.589C37.1866 21.0763 36.266 20.7401 35.3062 20.6018C34.3464 20.4635 33.3684 20.5262 32.4341 20.7858L22.5341 23.5358C21.8138 23.736 21.164 24.1341 20.6585 24.6849C20.153 25.2356 19.812 25.917 19.6741 26.6518L19.2261 29.0438C18.8961 30.8018 20.1461 32.3378 21.5401 32.9158C22.0501 33.1278 22.6321 33.4218 23.2461 33.8318C26.6061 36.0698 28.2061 39.1038 29.2781 41.6818C29.4701 42.1458 29.6541 42.6218 29.8321 43.0798C30.1241 43.8318 30.4001 44.5398 30.6641 45.0818C30.8861 45.5358 31.1541 45.9918 31.5041 46.3418C31.8761 46.7178 32.3741 46.9998 33.0001 46.9998C33.7141 46.9998 34.3321 46.7518 34.8241 46.3198C35.2941 45.9058 35.6101 45.3578 35.8281 44.7978C36.2561 43.6898 36.3901 42.2958 36.4081 41.0118C36.4148 39.6702 36.33 38.3298 36.1541 36.9998H37.1781C37.9128 36.9997 38.6384 36.8378 39.3034 36.5254C39.9685 36.2131 40.5565 35.758 41.0256 35.1926C41.4948 34.6272 41.8336 33.9654 42.0179 33.2542C42.2022 32.543 42.2275 31.7999 42.0921 31.0778L41.1861 26.2378L41.1881 26.2398Z" fill="#323232"/>
<rect x="1.5" y="1.5" width="61" height="61" rx="30.5" stroke="#DC5942" stroke-width="3"/>
</svg>
