<svg width="64" height="64" viewBox="0 0 64 64" fill="none" xmlns="http://www.w3.org/2000/svg">
<rect x="1.5" y="1.5" width="61" height="61" rx="30.5" fill="black" fill-opacity="0.2"/>
<path d="M42.1881 25.2398C42.0093 24.2867 41.6345 23.3812 41.0873 22.5806C40.5402 21.78 39.8326 21.1018 39.0096 20.589C38.1866 20.0763 37.266 19.7401 36.3062 19.6018C35.3464 19.4635 34.3684 19.5262 33.4341 19.7858L23.5341 22.5358C22.8138 22.736 22.164 23.1341 21.6585 23.6849C21.153 24.2356 20.812 24.917 20.6741 25.6518L20.2261 28.0438C19.8961 29.8018 21.1461 31.3378 22.5401 31.9158C23.0501 32.1278 23.6321 32.4218 24.2461 32.8318C27.6061 35.0698 29.2061 38.1038 30.2781 40.6818C30.4701 41.1458 30.6541 41.6218 30.8321 42.0798C31.1241 42.8318 31.4001 43.5398 31.6641 44.0818C31.8861 44.5358 32.1541 44.9918 32.5041 45.3418C32.8761 45.7178 33.3741 45.9998 34.0001 45.9998C34.7141 45.9998 35.3321 45.7518 35.8241 45.3198C36.2941 44.9058 36.6101 44.3578 36.8281 43.7978C37.2561 42.6898 37.3901 41.2958 37.4081 40.0118C37.4148 38.6702 37.33 37.3298 37.1541 35.9998H38.1781C38.9128 35.9997 39.6384 35.8378 40.3034 35.5254C40.9685 35.2131 41.5565 34.758 42.0256 34.1926C42.4948 33.6272 42.8336 32.9654 43.0179 32.2542C43.2022 31.543 43.2275 30.7999 43.0921 30.0778L42.1861 25.2378L42.1881 25.2398Z" fill="#DC5942"/>
<rect x="1.5" y="1.5" width="61" height="61" rx="30.5" stroke="#DC5942" stroke-width="3"/>
</svg>
